<?xml version="1.0" encoding="utf-8"?>
<!-- Generator: Adobe Illustrator 16.0.4, SVG Export Plug-In . SVG Version: 6.00 Build 0)  -->
<!DOCTYPE svg PUBLIC "-//W3C//DTD SVG 1.1//EN" "http://www.w3.org/Graphics/SVG/1.1/DTD/svg11.dtd">
<svg version="1.1" id="Layer_1" xmlns="http://www.w3.org/2000/svg" xmlns:xlink="http://www.w3.org/1999/xlink" x="0px" y="0px"
	 width="2550px" height="1024px" viewBox="0 0 2550 1024" enable-background="new 0 0 2550 1024" xml:space="preserve">
<g>
	<g>
		<path d="M2531.073,825.213c0,102.087-82.758,184.845-184.845,184.845H202.003c-102.087,0-184.845-82.758-184.845-184.845V201.277
			c0-102.087,82.758-184.845,184.845-184.845h2144.226c102.087,0,184.845,82.758,184.845,184.845V825.213z"/>
	</g>
	<g>
		<g>
			<path fill="#FFFFFF" d="M599.368,500.79c-0.553-62.725,51.361-93.25,53.717-94.682c-29.393-42.875-74.966-48.736-90.999-49.199
				c-38.269-4.012-75.4,22.906-94.922,22.906c-19.893,0-49.929-22.503-82.259-21.848c-41.654,0.641-80.636,24.771-102.022,62.216
				c-44.067,76.355-11.199,188.562,31.049,250.275c21.133,30.212,45.842,63.978,78.146,62.781
				c31.643-1.311,43.472-20.189,81.632-20.189c37.834,0,48.915,20.189,81.858,19.415c33.972-0.536,55.356-30.334,75.742-60.846
				c24.428-34.658,34.242-68.777,34.629-70.537C665.163,600.845,600.023,575.97,599.368,500.79z"/>
		</g>
		<g>
			<path fill="#FFFFFF" d="M537.093,316.315c16.999-21.28,28.632-50.211,25.411-79.59c-24.621,1.104-55.432,17.015-73.133,37.85
				c-15.704,18.341-29.706,48.378-26.097,76.637C490.905,353.271,519.314,337.269,537.093,316.315z"/>
		</g>
	</g>
	<g>
		<path fill="#FFFFFF" d="M824.078,402.304V271.219h45.843c33.269,0,62.29,22.728,62.29,65.811
			c0,42.905-29.393,65.274-62.662,65.274H824.078z M868.996,386.213c24.218,0,44.544-16.271,44.544-49.183
			c0-33.092-19.954-49.735-44.172-49.735h-27.187v98.918H868.996z"/>
		<path fill="#FFFFFF" d="M1038.87,357.743c0,27.173-18.867,47.335-45.486,47.335s-45.483-20.163-45.483-47.335
			c0-26.991,18.864-47.139,45.483-47.139S1038.87,330.752,1038.87,357.743z M1021.122,357.743c0-20.521-12.944-31.614-27.738-31.614
			c-14.779,0-27.724,11.094-27.724,31.614c0,20.701,12.944,31.795,27.724,31.795
			C1008.178,389.539,1021.122,378.444,1021.122,357.743z"/>
		<path fill="#FFFFFF" d="M1127.229,313.364l23.099,66.929l19.611-66.929h18.299l-28.843,88.94h-17.94l-23.666-67.675
			l-23.101,67.675h-18.299l-29.213-88.94h19.044l19.954,66.929l23.113-66.929H1127.229z"/>
		<path fill="#FFFFFF" d="M1223.149,402.304h-17.389v-88.94h17.017v12.765c6.472-11.096,17.015-15.346,27.359-15.346
			c21.267,0,31.795,15.346,31.795,35.12v56.402h-17.359v-53.433c0-12.392-5.188-22.371-20.709-22.371
			c-13.675,0-20.713,10.903-20.713,24.398V402.304z"/>
		<path fill="#FFFFFF" d="M1309.639,402.304V268.445h17.39v133.859H1309.639z"/>
		<path fill="#FFFFFF" d="M1440.157,357.743c0,27.173-18.849,47.335-45.483,47.335c-26.606,0-45.485-20.163-45.485-47.335
			c0-26.991,18.879-47.139,45.485-47.139C1421.309,310.604,1440.157,330.752,1440.157,357.743z M1422.412,357.743
			c0-20.521-12.944-31.614-27.738-31.614c-14.762,0-27.709,11.094-27.709,31.614c0,20.701,12.947,31.795,27.709,31.795
			C1409.468,389.539,1422.412,378.444,1422.412,357.743z"/>
		<path fill="#FFFFFF" d="M1483.764,351.466l24.039-3.521c5.366-0.745,6.83-3.52,6.83-6.665c0-8.681-5.726-15.898-19.208-15.898
			c-12.198,0-19.056,7.591-20.16,17.94l-16.645-3.893c1.851-17.001,17.212-28.826,36.42-28.826
			c26.632,0,36.982,15.152,36.982,32.526v44.559c0,7.77,0.746,12.393,1.104,14.615h-17.002c-0.355-2.222-0.924-5.548-0.924-12.021
			c-3.878,6.279-12.766,14.795-28.663,14.795c-18.104,0-29.766-12.587-29.766-26.635
			C1456.771,362.545,1468.433,353.673,1483.764,351.466z M1514.633,364.216v-4.071l-27.17,4.071
			c-7.398,1.104-12.944,5.354-12.944,13.303c0,6.667,5.546,12.944,14.434,12.944
			C1503.179,390.463,1514.633,383.634,1514.633,364.216z"/>
		<path fill="#FFFFFF" d="M1621.292,388.808c-4.235,8.501-13.658,15.897-27.529,15.897c-26.068,0-42.175-20.715-42.175-47.155
			c0-25.144,17.029-46.589,42.175-46.589c15.72,0,24.219,7.769,27.172,14.972v-57.489h17.209V385.84
			c0,8.516,0.717,14.989,0.895,16.464h-16.82c-0.357-2.044-0.926-6.666-0.926-12.021V388.808z M1595.434,389.36
			c15.897,0,25.679-13.869,25.679-32.168c0-18.312-9.605-30.885-25.499-30.885c-15.898,0-26.25,12.945-26.25,31.244
			C1569.363,375.863,1578.789,389.36,1595.434,389.36z"/>
		<path fill="#FFFFFF" d="M1797.475,357.743c0,27.173-18.88,47.335-45.487,47.335c-26.633,0-45.482-20.163-45.482-47.335
			c0-26.991,18.85-47.139,45.482-47.139C1778.595,310.604,1797.475,330.752,1797.475,357.743z M1779.696,357.743
			c0-20.521-12.944-31.614-27.709-31.614c-14.791,0-27.738,11.094-27.738,31.614c0,20.701,12.947,31.795,27.738,31.795
			C1766.752,389.539,1779.696,378.444,1779.696,357.743z"/>
		<path fill="#FFFFFF" d="M1836.993,402.304h-17.387v-88.94h17.029v12.765c6.473-11.096,17-15.346,27.352-15.346
			c21.264,0,31.793,15.346,31.793,35.12v56.402h-17.359v-53.433c0-12.392-5.19-22.371-20.697-22.371
			c-13.693,0-20.73,10.903-20.73,24.398V402.304z"/>
		<path fill="#FFFFFF" d="M1993.012,313.364h19.24v15.718h-19.24v46.215c0,8.143,3.342,12.213,12.378,12.213
			c2.238,0,5.369-0.373,6.862-0.745v14.792c-1.493,0.553-5.936,1.656-11.841,1.656c-15.151,0-24.784-9.245-24.784-25.322v-48.81
			h-17.004v-15.718h4.804c9.603,0,13.691-5.922,13.691-13.676v-14.421h15.894V313.364z"/>
		<path fill="#FFFFFF" d="M2052.724,402.304h-17.385V268.445h17.385v55.282c6.477-9.426,16.824-12.945,26.996-12.945
			c21.263,0,31.792,15.346,31.792,35.12v56.402h-17.359v-53.433c0-12.392-5.188-22.371-20.728-22.371
			c-13.302,0-20.34,10.351-20.701,23.474V402.304z"/>
		<path fill="#FFFFFF" d="M2216.679,376.967c-4.982,15.718-19.208,28.111-39.937,28.111c-23.834,0-44.741-17.39-44.741-47.528
			c0-27.917,20.162-46.947,42.535-46.947c27.35,0,42.71,18.85,42.71,46.588c0,2.208-0.212,4.428-0.388,5.547h-66.929
			c0.387,15.898,11.839,26.979,26.812,26.979c14.404,0,21.623-7.949,24.964-17.926L2216.679,376.967z M2199.112,348.678
			c-0.359-12.752-8.681-22.744-24.398-22.744c-14.616,0-23.475,11.289-24.22,22.744H2199.112z"/>
		<path fill="#FFFFFF" d="M965.825,654.294h-98.678l-23.576,62.244h-32.99l88.614-222.832h35.523l88.625,222.832h-33.328
			L965.825,654.294z M878.136,625.719h76.699l-38.67-99.947L878.136,625.719z"/>
		<path fill="#FFFFFF" d="M1050.008,776.251v-210.87h28.604v23.562c8.171-15.091,26.099-27.021,50.614-27.021
			c45.246,0,69.451,34.867,69.451,78.859c0,44.948-26.099,79.845-70.405,79.845c-23.251,0-40.846-11.005-49.019-24.518v80.144
			H1050.008z M1123.889,587.989c-27.037,0-44.949,22.638-44.949,52.791c0,31.139,17.912,53.448,44.949,53.448
			c27.336,0,44.62-22.31,44.62-53.448C1168.508,610.627,1151.524,587.989,1123.889,587.989z"/>
		<path fill="#FFFFFF" d="M1236.363,776.251v-210.87h28.597v23.562c8.158-15.091,26.081-27.021,50.588-27.021
			c45.274,0,69.462,34.867,69.462,78.859c0,44.948-26.098,79.845-70.39,79.845c-23.265,0-40.861-11.005-49.034-24.518v80.144
			H1236.363z M1310.208,587.989c-27.026,0-44.935,22.638-44.935,52.791c0,31.139,17.908,53.448,44.935,53.448
			c27.348,0,44.649-22.31,44.649-53.448C1354.857,610.627,1337.854,587.989,1310.208,587.989z"/>
		<path fill="#FFFFFF" d="M1618.787,554.046c-2.505-16.016-16.019-38.013-47.156-38.013c-25.113,0-43.038,16.33-43.038,37.089
			c0,16.018,9.754,28.275,28.603,32.361l33.315,7.217c37.075,8.173,57.832,31.438,57.832,62.546
			c0,34.567-29.556,66.004-77.008,66.004c-53.749,0-79.19-34.567-83.277-66.302l29.528-9.426
			c2.208,24.817,19.805,47.751,53.448,47.751c30.781,0,45.873-16.016,45.873-35.493c0-16.045-11.008-29.854-33.316-34.567
			l-31.734-6.919c-31.734-6.951-54.371-27.648-54.371-60.994c0-34.867,32.358-66.307,73.549-66.307
			c50.258,0,70.39,31.127,75.431,55.33L1618.787,554.046z"/>
		<path fill="#FFFFFF" d="M1724.042,565.381h32.691v26.694h-32.691v78.562c0,13.84,5.666,20.759,21.057,20.759
			c3.761,0,9.127-0.627,11.635-1.254v25.144c-2.508,0.956-10.085,2.834-20.134,2.834c-25.74,0-42.114-15.717-42.114-43.068v-82.976
			h-28.901v-26.694h8.169c16.348,0,23.267-10.081,23.267-23.266v-24.517h27.022V565.381z"/>
		<path fill="#FFFFFF" d="M1936.494,640.78c0,46.23-32.064,80.47-77.309,80.47c-45.276,0-77.34-34.239-77.34-80.47
			c0-45.872,32.063-80.112,77.34-80.112C1904.43,560.668,1936.494,594.908,1936.494,640.78z M1906.31,640.78
			c0-34.864-21.982-53.716-47.124-53.716c-25.146,0-47.154,18.852-47.154,53.716c0,35.225,22.009,54.075,47.154,54.075
			C1884.327,694.855,1906.31,676.005,1906.31,640.78z"/>
		<path fill="#FFFFFF" d="M2058.093,595.237c-4.413-0.628-8.827-0.955-12.885-0.955c-24.845,0-41.487,13.213-41.487,46.498v75.758
			h-29.558V565.381h28.932v26.396c11.006-23.266,29.858-28.932,45.246-28.932c4.087,0,8.174,0.627,9.752,0.956V595.237z"/>
		<path fill="#FFFFFF" d="M2219.603,673.469c-8.474,26.726-32.659,47.781-67.855,47.781c-40.562,0-76.057-29.557-76.057-80.768
			c0-47.454,34.241-79.814,72.271-79.814c46.522,0,72.594,32.032,72.594,79.188c0,3.757-0.3,7.547-0.628,9.426h-113.755
			c0.624,27.021,20.101,45.902,45.574,45.902c24.485,0,36.745-13.511,42.411-30.514L2219.603,673.469z M2189.746,625.39
			c-0.626-21.682-14.762-38.654-41.487-38.654c-24.815,0-39.909,19.181-41.16,38.654H2189.746z"/>
	</g>
</g>
</svg>
